# xmcd CD database file
#
# Track frame offsets:
#	150
#	16799
#	36401
#	48198
#	64635
#	86739
#	107799
#	124040
#	140359
#	157649
#	172237
#	193771
#	205628
#	219673
#	244699
#	260236
#	279739
#	293894
#
# Disc length: 4243 seconds
#
# Revision: 0
# Processed by: cddbd v1.5.2PL0 Copyright (c) Steve Scherf et al.
# Submitted via: CDex 1.70beta2
#
DISCID=0b109112
DTITLE=Various Artist - 外國民歌紅
DYEAR=1900
DGENRE=Country
TTITLE0=莫斯科郊外的晚上
TTITLE1=北國之春
TTITLE2=三套車
TTITLE3=白蘭鶴
TTITLE4=小路
TTITLE5=友誼地久天長
TTITLE6=賣花姑娘
TTITLE7=浚羅河
TTITLE8=山楂樹
TTITLE9=喀秋莎
TTITLE10=紅河谷
TTITLE11=紅梅花兒幾開
TTITLE12=啊朋友再見
TTITLE13=女人嫁人新郎不是我
TTITLE14=西班牙女郎
TTITLE15=星
TTITLE16=瑪利諾之歌
TTITLE17=星星索
EXTD=
EXTT0=
EXTT1=
EXTT2=
EXTT3=
EXTT4=
EXTT5=
EXTT6=
EXTT7=
EXTT8=
EXTT9=
EXTT10=
EXTT11=
EXTT12=
EXTT13=
EXTT14=
EXTT15=
EXTT16=
EXTT17=
PLAYORDER=
